<?xml version="1.0" encoding="utf-8"?>
<!-- Generator: Adobe Illustrator 21.1.0, SVG Export Plug-In . SVG Version: 6.00 Build 0)  -->
<svg version="1.1" id="Layer_1" xmlns="http://www.w3.org/2000/svg" xmlns:xlink="http://www.w3.org/1999/xlink" x="0px" y="0px"
	 width="87.4px" height="32px" viewBox="0 0 87.4 32" style="enable-background:new 0 0 87.4 32;" xml:space="preserve">
<style type="text/css">
	.st0{fill:#FFFFFF;}
</style>
<path class="st0" d="M49.4,0.5c-2.5,0.6-3.7,1.9-3.7,4c0,2.4,1.3,3.5,5.7,4.7c2.1,0.6,2.8,1.5,1.8,2.4c-1.1,1.1-3.4,0.4-3.6-1.1
	c-0.1-0.7-0.1-0.7-2.5-0.6L45,9.9l0.1,0.7c0.2,1,1,2.5,1.7,3.2c2.1,1.8,7.8,1.6,9.8-0.3l0.6-0.6l0.1,0.7c0.4,2.4,2.8,4.7,5.6,5.2
	l0.9,0.2l-0.5,0.7c-1.8,2.3-1.8,7-0.1,9.4c2.6,3.7,10,3.6,12.4-0.2l0.4-0.7v3.4h11.4v-3.6h-6.8V17.3h-4.6l0,1.6c0,1.3,0,1.6-0.2,1.3
	c-0.9-1.4-2.6-2.6-4.2-3l-0.9-0.2l0.9-0.7c2.8-2.1,4.6-6,4.1-9.1C74.6-0.8,62.8-1,58.3,7.1c-0.3,0.5-0.5,1-0.5,1
	c0,0-0.4-0.3-0.9-0.8c-1-1-1.8-1.3-4.5-2c-2.5-0.6-3.1-1.1-2.2-1.9c0.8-0.8,2.6-0.3,3,0.8c0.2,0.6,0.2,0.6,2.9,0.5l1.6-0.1L57.5,4
	C57,1.1,53.4-0.5,49.4,0.5L49.4,0.5z M1,7.7v7.1h4.6V9.1H6c0.7,0,1.2,0.5,2.6,3.2l1.3,2.4l2.5,0c1.4,0,2.5,0,2.5-0.1
	c0-0.8-2.9-5.4-3.6-5.9L11,8.5l0.9-0.5c3.3-1.7,2.6-6.6-0.9-7.3c-0.4-0.1-2.7-0.2-5.4-0.2H1L1,7.7L1,7.7z M70.4,1.8
	c7.2,1.9,6.5,11.9-1,15.6c-7.7,3.7-14.5-2.4-10.8-9.7C60.6,3.4,66.1,0.7,70.4,1.8L70.4,1.8z M8.7,3.8C10.3,4.6,9.3,6.1,7,6.2
	L5.6,6.3V3.6l1.4,0C7.7,3.6,8.5,3.7,8.7,3.8L8.7,3.8z M67.8,5c-1.3,0.3-2.5,1.6-2.5,2.5c0,1.5,1.2,2,3.1,1.4c1.2-0.4,1.4-0.4,1.7,0
	c0.4,0.7-0.8,1.4-1.5,0.9c-0.3-0.2-1.6,0.5-1.6,1c0,0.7,1.7,1,2.8,0.4c3.4-1.7,2.4-5.3-1.1-4.1c-1.4,0.5-1.7,0.5-1.7,0.1
	c0-0.6,1-1.1,1.4-0.6c0.2,0.2,1.5-0.7,1.5-1C69.7,5.2,68.6,4.8,67.8,5L67.8,5z M62.7,8.4C62,9,62,8.8,63.3,10.8
	c0.9,1.2,1.2,1.8,1.1,2.1c-0.1,0.5-0.6,0.6-1,0.2c-0.2-0.2-0.3-0.2-0.9,0.3c-1.4,1.2,0.8,2.3,2.4,1.2c1.8-1.3,1.8-2,0-4.7
	C63.6,7.9,63.6,7.8,62.7,8.4L62.7,8.4z M4.7,17.2c-2.6,0.4-4.1,1.9-4.1,4.1c0,2.2,1.4,3.5,5,4.4c2.2,0.6,2.9,1,2.9,1.7
	c0,2-3.7,1.8-4-0.2c-0.1-0.7-0.1-0.7-2.5-0.6L0,26.7l0.1,0.6c0.5,3,2.2,4.2,6,4.3c3.1,0.1,4.1-0.2,5.4-1.5l0.9-0.9l0.3,0.5
	c1.9,2.6,8.5,2.8,10.6,0.3c0.6-0.7,1.3-2.1,1.4-2.8c0.1-0.4,0-0.5-1.9-1l-1.9-0.6l-0.3,0.8c-0.9,2.7-4.2,2.7-4.9,0
	c-0.2-0.9-0.2-3,0.1-4c0.7-2.2,3.5-2.7,4.6-0.8c0.5,0.8,0.3,0.8,2.5,0.3c2.1-0.5,2-0.4,1.5-1.4c-1.9-4-8.1-4.9-11.4-1.7l-0.9,0.9
	l-0.4-0.7C10.9,17.5,7.9,16.7,4.7,17.2L4.7,17.2z M48.4,17.2c-1.8,0.3-3.5,1.4-4.5,2.8c-0.3,0.4-0.3,0.4-0.3-1.1l0-1.5h-4.6v4.9
	h-4.6v-4.9h-4.6v14.2h4.6v-5.7h4.6v5.7h4.6v-3.2l0.5,0.7c2.1,3.1,8.4,3.7,11.3,1c3.4-3.1,2.7-10.2-1.1-12.1
	C52.9,17.2,50.3,16.8,48.4,17.2L48.4,17.2z M7.3,20.1C7.6,20.2,7.9,20.6,8,21l0.3,0.7l3.1-0.1l-0.1,0.8c-0.1,1.1-0.2,1.1-1.1,0.7
	c-0.4-0.2-1.6-0.5-2.6-0.8C5.2,21.6,5,21.5,4.8,21C4.6,20.1,6.2,19.5,7.3,20.1L7.3,20.1z M51.1,20.6c2.3,0.7,2.8,6,0.6,7.3
	c-1.6,1-3.7,0.1-4.2-1.6C46.6,22.7,48.4,19.9,51.1,20.6z M70.2,20.6c2.7,0.8,2.7,6.9-0.1,7.6c-2.2,0.6-3.7-0.9-3.6-3.8
	C66.5,21.4,67.9,20,70.2,20.6L70.2,20.6z"/>
</svg>
