<svg width="640" height="512" xmlns="http://www.w3.org/2000/svg">
 <!--! Font Awesome Pro 6.3.0 by @fontawesome - https://fontawesome.com License - https://fontawesome.com/license (Commercial License) Copyright 2023 Fonticons, Inc. -->

 <g>
  <title>background</title>
  <rect fill="none" id="canvas_background" height="514" width="322" y="-1" x="-1"/>
 </g>
 <g>
  <title>Layer 1</title>
  <path fill="#DDDDDD" id="svg_1" d="m533.6,32.5c64.9,52.8 106.4,133.3 106.4,223.5s-41.5,170.8 -106.4,223.5c-10.3,8.4 -25.4,6.8 -33.8,-3.5s-6.8,-25.4 3.5,-33.8c54.2,-44 88.7,-111 88.7,-186.2s-34.5,-142.2 -88.7,-186.3c-10.3,-8.4 -11.8,-23.5 -3.5,-33.8s23.5,-11.8 33.8,-3.5l0,0.1zm-60.5,74.5c43.2,35.2 70.9,88.9 70.9,149s-27.7,113.8 -70.9,149c-10.3,8.4 -25.4,6.8 -33.8,-3.5s-6.8,-25.4 3.5,-33.8c32.5,-26.4 53.2,-66.6 53.2,-111.7s-20.7,-85.3 -53.2,-111.8c-10.3,-8.4 -11.8,-23.5 -3.5,-33.8s23.5,-11.8 33.8,-3.5l0,0.1zm-60.5,74.4c21.5,17.7 35.4,44.5 35.4,74.6s-13.9,56.9 -35.4,74.5c-10.3,8.4 -25.4,6.8 -33.8,-3.5s-6.8,-25.4 3.5,-33.8c10.8,-8.8 17.7,-22.2 17.7,-37.2s-6.9,-28.4 -17.7,-37.3c-10.3,-8.4 -11.8,-23.5 -3.5,-33.8s23.5,-11.8 33.8,-3.5zm-111.5,-146.6c11.5,5.2 18.9,16.6 18.9,29.2l0,384c0,12.6 -7.4,24 -18.9,29.2s-25,3.1 -34.4,-5.3l-134.9,-119.9l-67.8,0c-35.3,0 -64,-28.7 -64,-64l0,-64c0,-35.3 28.7,-64 64,-64l67.8,0l134.9,-119.9c9.4,-8.4 22.9,-10.4 34.4,-5.3z"/>
 </g>
</svg>